<?xml version="1.0" encoding="iso-8859-1"?>

<!DOCTYPE svg PUBLIC "-//W3C//DTD SVG 1.1//EN" "http://www.w3.org/Graphics/SVG/1.1/DTD/svg11.dtd">
<!-- Uploaded to: SVG Repo, www.svgrepo.com, Generator: SVG Repo Mixer Tools -->
<svg height="800px" width="800px" version="1.1" id="_x36_" xmlns="http://www.w3.org/2000/svg" xmlns:xlink="http://www.w3.org/1999/xlink" 
	 viewBox="0 0 512 512"  xml:space="preserve">
<g>
	<g>
		<g>
			<polygon style="fill:#64BFA3;" points="316.83,170.68 237.913,170.416 249.881,95.058 328.798,95.322 			"/>
			<polygon style="fill:#64BFA3;" points="232.722,203.101 232.702,203.227 195.081,203.101 183.113,278.459 220.734,278.585 
				198.803,416.677 277.72,416.942 311.639,203.366 			"/>
		</g>
		<g>
			<path style="fill:#64BFA3;" d="M472.616,93.461c-7.258-10.355-15.488-20.179-24.693-29.384
				c-9.116-9.116-18.852-17.347-29.118-24.427C382.341,13.807,339.15,0,293.836,0h-75.76C160.017,0,105.321,22.746,63.989,64.077
				C22.746,105.321,0,160.017,0,218.076v75.849c0,47.704,15.4,93.107,43.721,130.721c6.107,8.143,12.922,15.931,20.267,23.277
				c7.257,7.258,14.957,13.984,23.012,20.002C124.615,496.512,170.194,512,218.076,512h75.76
				c58.059,0,112.755-22.746,154.087-64.077c41.244-41.243,63.989-95.939,63.989-153.998v-75.849
				C511.912,172.938,498.193,129.836,472.616,93.461z M462.172,293.925c0,92.753-75.495,168.247-168.336,168.247h-75.76
				c-92.841,0-168.336-75.494-168.336-168.247v-75.849c0-92.753,75.495-168.248,168.336-168.248h75.76
				c92.841,0,168.336,75.494,168.336,168.248V293.925z"/>
		</g>
	</g>
	<path style="fill:none;" d="M49.775,218.096v75.808c0,92.788,75.489,168.277,168.278,168.277h37.903v-45.312l-57.153-0.192
		l21.931-138.092l-37.62-0.126l11.969-75.358l37.62,0.126l0.02-0.126l23.234,0.078v-32.703l-18.043-0.061l11.968-75.358l6.075,0.021
		V49.819h-37.903C125.264,49.819,49.775,125.307,49.775,218.096z"/>
	<path style="fill:none;" d="M328.798,95.322L316.83,170.68l-60.874-0.204v32.703l55.683,0.186L277.72,416.942l-21.764-0.073v45.312
		h37.904c92.788,0,168.277-75.489,168.277-168.277v-75.808c0-92.788-75.488-168.277-168.277-168.277h-37.904v45.259L328.798,95.322z
		"/>
	<g style="opacity:0.1;">
		<polygon style="fill:#040000;" points="328.798,95.322 255.956,95.078 255.956,170.476 316.83,170.68 		"/>
		<polygon style="fill:#040000;" points="311.639,203.365 255.956,203.179 255.956,416.869 277.72,416.942 		"/>
		<path style="fill:#040000;" d="M447.91,64.044C406.611,22.746,351.901,0.001,293.86,0.001h-37.904v49.818h37.904
			c92.788,0,168.277,75.489,168.277,168.277v75.808c0,92.788-75.488,168.277-168.277,168.277h-37.904v49.818h37.904
			c58.041,0,112.751-22.745,154.05-64.044c41.299-41.3,64.044-96.01,64.044-154.051v-75.808
			C511.954,160.055,489.209,105.345,447.91,64.044z"/>
	</g>
</g>
</svg>