<?xml version="1.0" encoding="utf-8"?><!-- Uploaded to: SVG Repo, www.svgrepo.com, Generator: SVG Repo Mixer Tools -->
<svg fill="#000000" width="800px" height="800px" viewBox="0 0 24 24" id="information-chat-right" data-name="Flat Line" xmlns="http://www.w3.org/2000/svg" class="icon flat-line"><path id="secondary" d="M3.12,13.47a9,9,0,0,0,13,6.52h0l3.39.7a1,1,0,0,0,1.18-1.18L20,16.11A9,9,0,1,0,3.12,13.47Z" style="fill: rgb(44, 169, 188); stroke-width: 2;"></path><line id="primary-upstroke" x1="12.05" y1="8" x2="11.95" y2="8" style="fill: none; stroke: rgb(0, 0, 0); stroke-linecap: round; stroke-linejoin: round; stroke-width: 2.5;"></line><path id="primary" d="M12,16V13m-8.88.47a9,9,0,0,0,13,6.52h0l3.39.7a1,1,0,0,0,1.18-1.18L20,16.11A9,9,0,1,0,3.12,13.47Z" style="fill: none; stroke: rgb(0, 0, 0); stroke-linecap: round; stroke-linejoin: round; stroke-width: 2;"></path></svg>