<?xml version="1.0" encoding="iso-8859-1"?>
<!-- Uploaded to: SVG Repo, www.svgrepo.com, Generator: SVG Repo Mixer Tools -->
<svg fill="#000000" height="800px" width="800px" version="1.1" id="Layer_1" xmlns="http://www.w3.org/2000/svg" xmlns:xlink="http://www.w3.org/1999/xlink" 
	 viewBox="0 0 512 512" xml:space="preserve">
<g>
	<g>
		<g>
			<path d="M501.657,352.997H468.04V89.138c0-22.671-18.444-41.115-41.115-41.115H85.075c-22.671,0-41.115,18.444-41.115,41.115
				v263.859H10.343C4.631,352.997,0,357.628,0,363.34v14.825c0,28.897,23.51,52.407,52.407,52.407h371.675l30.376,30.376
				c2.02,2.019,4.667,3.03,7.314,3.03c2.647,0,5.294-1.011,7.314-3.03l32.913-32.912c1.939-1.939,3.03-4.571,3.03-7.314
				s-1.09-5.373-3.03-7.314l-1.973-1.973c7.468-9.057,11.974-20.642,11.974-33.271V363.34H512
				C512,357.628,507.368,352.997,501.657,352.997z M64.646,89.138c0-11.265,9.164-20.428,20.428-20.428h341.851
				c11.265,0,20.428,9.163,20.428,20.428v263.859h-5.765l-81.815-81.814h48.689c5.712,0,10.343-4.632,10.343-10.343
				s-4.632-10.343-10.343-10.343h-48.709c8.631-23.939,8.996-50.21,1.089-74.346h6.867c5.712,0,10.343-4.632,10.343-10.343
				c0-5.712-4.632-10.343-10.343-10.343h-16.027c-4.922-8.654-11.062-16.8-18.435-24.173c-0.57-0.57-1.147-1.13-1.727-1.686h32.44
				c5.712,0,10.343-4.632,10.343-10.343c0-5.712-4.632-10.343-10.343-10.343h-59.966c-0.673,0-1.33,0.069-1.967,0.192
				c-15.17-7.291-31.904-11.144-49.233-11.144c-17.177,0-33.773,3.784-48.839,10.952H100.849c-5.713,0-10.343,4.632-10.343,10.343
				c0,5.712,4.631,10.343,10.343,10.343h73.22c-0.58,0.557-1.157,1.116-1.727,1.686c-7.307,7.307-13.495,15.435-18.484,24.173
				h-28.702c-5.713,0-10.343,4.632-10.343,10.343c0,5.712,4.631,10.343,10.343,10.343h19.513
				c-2.729,8.318-4.489,16.984-5.237,25.859h-38.583c-5.713,0-10.343,4.632-10.343,10.343s4.631,10.343,10.343,10.343h38.689
				c0.843,8.883,2.713,17.548,5.545,25.859h-19.927c-5.713,0-10.343,4.632-10.343,10.343c0,5.712,4.631,10.343,10.343,10.343h29.412
				c4.862,8.275,10.808,15.989,17.773,22.955c0.991,0.991,2.001,1.954,3.021,2.903h-50.206c-5.713,0-10.343,4.632-10.343,10.343
				c0,5.712,4.631,10.343,10.343,10.343h81.441c14.355,6.38,30.018,9.735,46.197,9.735c18.825,0,36.95-4.546,53.128-13.109
				l40.585,40.583H64.646V89.138z M318.619,277.567c-17.583,17.584-40.96,27.267-65.826,27.267c-13.791,0-27.12-2.99-39.262-8.644
				c-0.234-0.117-0.47-0.23-0.714-0.328c-9.475-4.511-18.211-10.655-25.85-18.294c-17.583-17.582-27.265-40.959-27.265-65.825
				c0-24.866,9.683-48.243,27.266-65.826s40.96-27.265,65.825-27.265c24.866,0,48.243,9.682,65.826,27.265
				C354.915,182.214,354.915,241.272,318.619,277.567z M52.407,409.885c-17.491,0-31.72-14.229-31.72-31.72v-4.482h33.616h312.89
				l36.202,36.202H52.407z M461.771,439.006L323.588,300.822c3.353-2.676,6.581-5.548,9.659-8.626
				c3.092-3.092,5.959-6.322,8.619-9.665l138.19,138.19L461.771,439.006z M491.313,378.165c0,6.921-2.24,13.32-6.019,18.539
				l-23.019-23.02h29.038V378.165z"/>
			<path d="M288.996,188.806v-10.714c0-19.962-16.24-36.202-36.202-36.202c-19.962,0-36.202,16.24-36.202,36.202v10.714
				c-7.379,1.585-12.929,8.153-12.929,15.998v50.01c0,9.026,7.343,16.369,16.368,16.369h65.526c9.026,0,16.369-7.344,16.369-16.368
				v-50.01C301.925,196.959,296.375,190.391,288.996,188.806z M237.278,178.091c0-8.555,6.96-15.515,15.515-15.515
				s15.515,6.96,15.515,15.515v10.343h-31.03V178.091z M281.238,250.495h-56.889v-41.374h2.586h51.717h2.586V250.495z"/>
			<path d="M407.531,129.604h0.931c5.712,0,10.343-4.632,10.343-10.343c0-5.712-4.632-10.343-10.343-10.343h-0.931
				c-5.712,0-10.343,4.632-10.343,10.343C397.188,124.972,401.82,129.604,407.531,129.604z"/>
		</g>
	</g>
</g>
</svg>